<svg width="800" height="600" xmlns="http://www.w3.org/2000/svg">

 <g>
  <title>Layer 1</title>
  <g>
   <g>
    <path fill="#ffffff" clip-rule="evenodd" fill-rule="evenodd" d="m416.63,320.72155c-1.73,-1.75 -3.01,-3.63 -4.29,-5.49c-0.21,-0.31 -0.42,-0.61 -0.63,-0.92c-3.08,2.45 -6.82,4 -11.69,3.99c-5.26,-0.01 -9.21,-2.02 -12.46,-4.99c-0.19,-0.18 -0.39,-0.36 -0.57,-0.54c-0.46,1.29 -1.06,2.84 -1.69,4.28c-0.6,1.37 -1.25,2.67 -1.88,3.6c6.76,13.69 26.74,14.17 33.21,0.07l0,0zm-17.98,-69.46l2.71,0c0.51,0 0.92,0.41 0.92,0.92l0,4.03l4.03,0c0.51,0 0.92,0.41 0.92,0.92l0,2.71c0,0.51 -0.41,0.92 -0.92,0.92l-4.03,0l0,4.03c0,0.51 -0.41,0.92 -0.92,0.92l-2.71,0c-0.51,0 -0.92,-0.41 -0.92,-0.92l0,-4.03l-4.03,0c-0.51,0 -0.92,-0.41 -0.92,-0.92l0,-2.71c0,-0.51 0.41,-0.92 0.92,-0.92l4.03,0l0,-4.03c0,-0.5 0.41,-0.92 0.92,-0.92l0,0l0,0zm18.95,66.92l0,0c6.36,5.72 25.19,6.87 32.2,10.78c2.22,1.24 4.22,2.81 5.83,4.93c4.54,6 4.79,7.51 5.81,14.98c-0.36,3.78 -2.5,5.96 -6.73,6.29l-109.42,0c-4.22,-0.32 -6.37,-2.5 -6.73,-6.29c1.02,-7.47 1.27,-8.98 5.81,-14.98c1.61,-2.13 3.61,-3.7 5.83,-4.93c6.78,-3.78 24.65,-4.98 31.56,-10.25c0.43,-0.73 0.87,-1.66 1.31,-2.64c0.82,-1.87 1.57,-3.92 2.05,-5.32c-2,-2.36 -3.71,-5.01 -5.36,-7.63l-5.42,-8.62c-1.98,-2.96 -3.01,-5.66 -3.07,-7.87c-0.03,-1.04 0.15,-1.99 0.53,-2.82c0.4,-0.87 1.03,-1.6 1.86,-2.16c0.39,-0.26 0.83,-0.49 1.31,-0.67c-0.35,-4.67 -0.48,-10.57 -0.26,-15.5c0.12,-1.17 0.34,-2.34 0.67,-3.51c11.56,-28.37 51.68,-17.96 50.99,5.5l-0.34,14.05l0,0c1.5,0.46 2.47,1.41 2.86,2.95c0.44,1.71 -0.04,4.12 -1.49,7.4l0,0c-0.03,0.06 -0.06,0.12 -0.09,0.18l-6.18,10.17c-2.27,3.74 -4.57,7.49 -7.58,10.44c0.27,0.39 0.54,0.78 0.81,1.18c1.01,1.48 2.03,2.97 3.24,4.34l0,0zm-11.13,-31.83c-0.45,-0.3 -0.57,-0.91 -0.27,-1.35c0.3,-0.45 0.91,-0.57 1.35,-0.27c0.54,0.36 1.46,0.55 2.43,0.53c0.92,-0.02 1.86,-0.22 2.52,-0.64c0.45,-0.29 1.06,-0.16 1.35,0.3c0.29,0.45 0.16,1.06 -0.3,1.35c-0.98,0.63 -2.29,0.93 -3.54,0.95c-1.34,0.01 -2.68,-0.29 -3.54,-0.87l0,0l0,0zm-20.96,9.96c4.81,-1.85 9.63,-3 14.47,-3.12c4.83,-0.12 9.67,0.77 14.5,3l6.02,-13.3c5.44,-12.19 -38.93,-21.96 -40.56,0.49l5.57,12.93l0,0l0,0zm36.7,-11.99l-5.87,12.99c-0.01,0.03 -0.03,0.05 -0.04,0.08c0.05,0.12 0.07,0.25 0.08,0.38c0.04,3.06 -0.41,5.79 -1.23,8.17c1.17,-1.69 2.28,-3.5 3.37,-5.3l6.11,-10.06c1.14,-2.6 1.55,-4.34 1.29,-5.35c-0.15,-0.61 -0.82,-0.9 -1.97,-0.96c-0.24,-0.01 -0.49,-0.01 -0.74,-0.01c-0.27,0.01 -0.56,0.03 -0.85,0.05c-0.06,0.01 -0.11,0.01 -0.15,0.01l0,0l0,0zm-37.41,20.94c-0.67,-2.18 -1.08,-4.66 -1.16,-7.44c0,-0.11 0.01,-0.22 0.04,-0.32l-6.04,-14c-0.98,0.09 -1.74,0.32 -2.29,0.69c-0.35,0.24 -0.62,0.54 -0.78,0.9c-0.19,0.4 -0.27,0.89 -0.26,1.45c0.05,1.65 0.91,3.8 2.58,6.29l0.02,0.04l5.42,8.62c0.81,1.25 1.62,2.53 2.47,3.77l0,0zm15.23,-9.92c-4.73,0.12 -9.47,1.28 -14.22,3.16c0.43,8.29 4.06,13.39 8.59,15.57c0.47,0.23 0.96,0.42 1.45,0.59c1.28,0.37 2.66,0.57 4.17,0.57c0.76,0 1.48,-0.04 2.17,-0.13c1.31,-0.24 2.6,-0.68 3.82,-1.31c4.58,-2.4 8.13,-7.6 8.22,-15.34c-4.74,-2.31 -9.47,-3.23 -14.2,-3.11l0,0l0,0zm-13.35,-8.99c-0.45,-0.3 -0.57,-0.91 -0.27,-1.35c0.3,-0.45 0.91,-0.57 1.35,-0.27c0.55,0.37 1.48,0.57 2.48,0.57c0.94,-0.01 1.9,-0.2 2.65,-0.64c0.47,-0.27 1.06,-0.11 1.33,0.36c0.27,0.47 0.11,1.06 -0.36,1.33c-1.05,0.61 -2.37,0.89 -3.62,0.9c-1.36,0 -2.69,-0.32 -3.56,-0.9l0,0l0,0zm-0.39,-4.36c-0.44,0.31 -1.05,0.21 -1.36,-0.23c-0.31,-0.44 -0.21,-1.05 0.23,-1.36c1.45,-1.03 2.94,-1.56 4.47,-1.56c1.52,-0.01 3.04,0.51 4.56,1.56c0.44,0.31 0.55,0.91 0.25,1.36c-0.31,0.44 -0.91,0.55 -1.36,0.25c-1.18,-0.82 -2.33,-1.22 -3.45,-1.21c-1.11,-0.01 -2.22,0.4 -3.34,1.19l0,0l0,0zm21.11,0c-0.44,0.31 -1.05,0.21 -1.36,-0.23c-0.31,-0.44 -0.21,-1.05 0.23,-1.36c1.45,-1.03 2.94,-1.56 4.47,-1.56c1.52,-0.01 3.04,0.51 4.56,1.56c0.44,0.31 0.56,0.91 0.25,1.36c-0.31,0.44 -0.91,0.55 -1.36,0.25c-1.18,-0.82 -2.33,-1.22 -3.45,-1.21c-1.11,-0.01 -2.22,0.4 -3.34,1.19l0,0l0,0z" class="st0"/>
   </g>
  </g>
 </g>
</svg>