<svg width="87" height="106" viewBox="0 0 87 106" fill="none" xmlns="http://www.w3.org/2000/svg">
<path d="M52.9177 21.1036C52.9177 9.97784 60.3354 0.958549 69.4854 0.958549C78.6354 0.958549 86.0532 9.97784 86.0532 21.1036C86.0532 32.2294 78.6354 41.2487 69.4854 41.2487C60.3354 41.2487 52.9177 32.2294 52.9177 21.1036Z" fill="#FF2C2C"/>
<path d="M70.4887 50.1764V64.673C70.4887 71.0959 70.485 75.6397 70.243 79.1897C70.0046 82.6849 69.5526 84.8147 68.8384 86.4845C67.4485 89.7379 65.2671 92.3915 62.5905 94.0814C61.2172 94.9499 59.4656 95.4994 56.5911 95.7893C53.6715 96.0836 49.9346 96.0881 44.6528 96.0881H33.6525C28.3703 96.0881 24.6337 96.0836 21.7145 95.7893C18.8393 95.4994 17.0884 94.9499 15.7147 94.0814C13.0386 92.3915 10.8566 89.7379 9.4665 86.4845C8.75289 84.8147 8.30105 82.6849 8.0622 79.1897C7.81985 75.6397 7.81681 71.0959 7.81681 64.673V51.2981C7.81681 44.8753 7.81985 40.3319 8.0622 36.7823C8.30105 33.2864 8.75289 31.1574 9.4665 29.487C10.8566 26.2331 13.0386 23.58 15.7147 21.8897C17.0884 21.022 18.8393 20.4726 21.7145 20.1823C24.6337 19.8875 28.3702 19.884 33.6525 19.884H45.5751C45.6815 16.7457 46.1967 13.7357 47.0573 10.9306H33.4887C28.4071 10.9305 24.3648 10.9305 21.1051 11.2596C17.7664 11.5967 14.9202 12.3022 12.3203 13.9444C8.2993 16.4841 5.02082 20.4706 2.93209 25.3598C1.58154 28.521 1.0013 31.9817 0.724069 36.0413C0.453371 40.0049 0.453369 44.92 0.453369 51.0989V64.8722C0.453369 71.0511 0.453371 75.9665 0.724069 79.9306C1.0013 83.9899 1.58154 87.4503 2.93209 90.612C5.02082 95.5005 8.2993 99.487 12.3203 102.028C14.9202 103.669 17.7664 104.374 21.1051 104.712C24.3648 105.041 28.4069 105.041 33.4885 105.041H44.8164C49.8978 105.041 53.9403 105.041 57.2005 104.712C60.5389 104.374 63.3848 103.669 65.985 102.028C70.0055 99.487 73.2841 95.5005 75.3734 90.612C76.7237 87.4503 77.3036 83.9899 77.5816 79.9306C77.8522 75.9665 77.8522 71.0511 77.8522 64.8733V48.3739C75.5446 49.4207 73.0696 50.0471 70.4887 50.1764Z" fill="white"/>
</svg>
